<svg width="24" height="24" viewBox="0 0 24 24" fill="none" xmlns="http://www.w3.org/2000/svg">
<path d="M12.7718 16.4784C12.573 16.4757 12.3824 16.3988 12.2374 16.2628L4.73745 8.76278C4.61785 8.61706 4.55673 8.43206 4.56598 8.24377C4.57523 8.05548 4.65418 7.87737 4.78748 7.74407C4.92078 7.61076 5.0989 7.53181 5.28719 7.52256C5.47548 7.51332 5.66048 7.57443 5.8062 7.69403L12.7718 14.669L19.7374 7.69403C19.8832 7.57443 20.0682 7.51332 20.2565 7.52256C20.4447 7.53181 20.6229 7.61076 20.7562 7.74407C20.8895 7.87737 20.9684 8.05548 20.9777 8.24377C20.9869 8.43206 20.9258 8.61706 20.8062 8.76278L13.3062 16.2628C13.1612 16.3988 12.9706 16.4757 12.7718 16.4784V16.4784Z" fill="#028BD3"/>
</svg>
