<svg width="17" height="10" viewBox="0 0 17 10" fill="none" xmlns="http://www.w3.org/2000/svg">
<path d="M8.77182 9.47841C8.57304 9.47571 8.38244 9.3988 8.23745 9.26278L0.737447 1.76278C0.61785 1.61706 0.556731 1.43206 0.565978 1.24377C0.575226 1.05548 0.654179 0.877366 0.78748 0.744065C0.920781 0.610764 1.0989 0.531811 1.28719 0.522563C1.47548 0.513316 1.66048 0.574435 1.8062 0.694032L8.77182 7.66903L15.7374 0.694032C15.8832 0.574435 16.0682 0.513316 16.2565 0.522563C16.4447 0.531811 16.6229 0.610764 16.7562 0.744065C16.8895 0.877366 16.9684 1.05548 16.9777 1.24377C16.9869 1.43206 16.9258 1.61706 16.8062 1.76278L9.3062 9.26278C9.1612 9.3988 8.97061 9.47571 8.77182 9.47841V9.47841Z" fill="#028BD3"/>
</svg>
