<svg width="16" height="14" viewBox="0 0 16 14" fill="none" xmlns="http://www.w3.org/2000/svg">
<path d="M14.2137 1.73274L14.2133 1.73236C13.8115 1.34771 13.3373 1.04147 12.816 0.830807L12.8154 0.830549C12.2746 0.611142 11.6942 0.498694 11.108 0.500011L11.1068 0.500014C10.2829 0.500013 9.48059 0.720388 8.78469 1.13504L8.78468 1.13505C8.61821 1.23423 8.46052 1.34289 8.3114 1.46102L8.00092 1.707L7.69043 1.46102C7.54132 1.34289 7.38362 1.23423 7.21716 1.13505L7.21714 1.13504C6.52125 0.720388 5.71898 0.500013 4.895 0.500013C4.30088 0.500013 3.72769 0.61097 3.18647 0.830551L3.18593 0.830767C2.6627 1.04235 2.19234 1.34607 1.78839 1.73251L1.7877 1.73316C1.38683 2.11519 1.06725 2.56971 0.846491 3.07062L14.2137 1.73274ZM14.2137 1.73274C14.6142 2.11533 14.9338 2.56987 15.1553 3.07062L14.2137 1.73274ZM4.08341 10.5982L4.08347 10.5983C4.92537 11.3577 5.7652 12.0013 6.4044 12.461C6.72362 12.6905 6.9918 12.8734 7.18388 13.0011C7.27991 13.065 7.35678 13.115 7.41133 13.15C7.43861 13.1675 7.46018 13.1812 7.47565 13.1909C7.49042 13.2002 7.49766 13.2047 7.49895 13.2055L7.49915 13.2056L7.50705 13.2103L7.507 13.2104L7.94497 13.4848C7.94504 13.4848 7.94511 13.4849 7.94518 13.4849C7.97772 13.5051 8.02239 13.505 8.0549 13.4848C8.05494 13.4848 8.05497 13.4848 8.05501 13.4848L8.49298 13.2104L8.49307 13.2104C8.55551 13.1713 10.2275 12.12 11.9166 10.5982C12.933 9.68171 13.7394 8.78828 14.319 7.94435C14.6852 7.41038 14.9671 6.8908 15.158 6.39986L15.1584 6.39871C15.3887 5.81054 15.5 5.24459 15.5 4.71235V4.7109C15.5016 4.14341 15.3851 3.59224 15.1556 3.07122L4.08341 10.5982ZM4.08341 10.5982C3.06693 9.68162 2.26044 8.78811 1.68083 7.94411M4.08341 10.5982L1.68083 7.94411M1.68083 7.94411C1.31535 7.4112 1.03474 6.89125 0.841552 6.39871L1.68083 7.94411ZM0.5 4.71235C0.5 4.14367 0.616853 3.59183 0.846474 3.07066L0.841544 6.39869C0.611252 5.81052 0.5 5.24459 0.5 4.71235Z" stroke="white"/>
</svg>
