<svg width="17" height="17" viewBox="0 0 17 17" fill="none" xmlns="http://www.w3.org/2000/svg">
<path fill-rule="evenodd" clip-rule="evenodd" d="M10.6839 1.03694C9.48749 -0.345647 7.34314 -0.345648 6.14674 1.03694L5.61407 1.65252L4.80214 1.5939C2.97852 1.46224 1.46224 2.97852 1.5939 4.80214L1.65252 5.61407L1.03694 6.14674C-0.345647 7.34314 -0.345648 9.48749 1.03694 10.6839L1.65252 11.2166L1.5939 12.0285C1.46224 13.8521 2.97852 15.3684 4.80214 15.2367L5.61407 15.1781L6.14674 15.7937C7.34314 17.1763 9.48749 17.1763 10.6839 15.7937L11.2166 15.1781L12.0285 15.2367C13.8521 15.3684 15.3684 13.8521 15.2367 12.0285L15.1781 11.2166L15.7937 10.6839C17.1763 9.48749 17.1763 7.34314 15.7937 6.14674L15.1781 5.61407L15.2367 4.80214C15.3684 2.97852 13.8521 1.46224 12.0285 1.5939L11.2166 1.65252L10.6839 1.03694ZM12.1115 7.13321C12.5079 6.74874 12.5177 6.11565 12.1332 5.71917C11.7487 5.32268 11.1157 5.31294 10.7192 5.69741L7.29031 9.02236L6.11146 7.87923C5.71497 7.49476 5.08188 7.5045 4.69741 7.90099C4.31294 8.29747 4.32268 8.93056 4.71917 9.31503L6.59417 11.1332C6.98205 11.5093 7.59857 11.5093 7.98646 11.1332L12.1115 7.13321Z" fill="#26C3FF"/>
</svg>
