<svg width="12" height="8" viewBox="0 0 12 8" fill="none" xmlns="http://www.w3.org/2000/svg">
<path d="M0.605665 1.10028C0.537336 1.16844 0.483124 1.24941 0.446135 1.33855C0.409146 1.42769 0.390106 1.52325 0.390106 1.61976C0.390106 1.71627 0.409146 1.81183 0.446135 1.90097C0.483124 1.99011 0.537336 2.07108 0.605665 2.13924L5.54216 7.07573C5.59646 7.13015 5.66097 7.17332 5.73197 7.20277C5.80298 7.23223 5.8791 7.24739 5.95598 7.24739C6.03286 7.24739 6.10898 7.23223 6.17999 7.20277C6.25099 7.17332 6.3155 7.13015 6.3698 7.07573L11.3063 2.13924C11.5939 1.85162 11.5939 1.3879 11.3063 1.10028C11.0187 0.812664 10.555 0.812664 10.2673 1.10028L5.95892 5.40871L1.64462 1.09441C1.357 0.812665 0.893285 0.812665 0.605665 1.10028Z" fill="white"/>
</svg>
